<?xml version="1.0" encoding="UTF-8"?>
<svg version="1.1" xmlns="http://www.w3.org/2000/svg" width="300" height="100">
<path d="M0 0 C99 0 198 0 300 0 C300 33 300 66 300 100 C201 100 102 100 0 100 C0 67 0 34 0 0 Z " fill="#FEFDFD" transform="translate(0,0)"/>
<path d="M0 0 C3.0731244 2.24996608 3.90911639 3.4453427 4.53125 7.2421875 C4.42622951 19.45081967 4.42622951 19.45081967 0 24 C-3.4 27 -3.4 27 -6 27 C-5.38545304 23.00544473 -3.29353263 20.25533664 -1 17 C-4.52381687 19.54604597 -4.52381687 19.54604597 -7 23 C-7.07092842 25.2072923 -7.08415025 27.41667452 -7.0625 29.625 C-7.05347656 30.81351563 -7.04445313 32.00203125 -7.03515625 33.2265625 C-7.02355469 34.14179687 -7.01195313 35.05703125 -7 36 C-5.34385343 36.38218767 -3.67542976 36.71395102 -2 37 C0.11452238 34.88547762 -0.55438351 30.43004574 -0.37890625 27.56640625 C0 25 0 25 2 23 C4.6015625 22.5859375 4.6015625 22.5859375 7.625 22.375 C8.62789062 22.30023438 9.63078125 22.22546875 10.6640625 22.1484375 C11.82035156 22.07496094 11.82035156 22.07496094 13 22 C13 20.35 13 18.7 13 17 C11.02 16.34 9.04 15.68 7 15 C7 14.34 7 13.68 7 13 C10.49644963 12.68214094 12.397402 12.60355395 15.375 14.5625 C17.63913895 17.95870843 17.64269755 20.00099302 17 24 C14.83868824 26.63409871 13.32118648 27.85103073 9.88671875 28.23828125 C7.92290019 28.24874565 5.95934865 28.1328372 4 28 C4.05800781 28.60328125 4.11601563 29.2065625 4.17578125 29.828125 C4.54172367 36.31053352 4.54172367 36.31053352 1.9375 39.625 C-1.90996265 41.42593997 -3.95594856 41.19823746 -8 40 C-9.9375 38.4375 -9.9375 38.4375 -11 36 C-11.22886309 33.27965004 -11.13702696 30.74053927 -11 28 C-12.216875 28.103125 -13.43375 28.20625 -14.6875 28.3125 C-18.22393408 28.30621859 -18.93853572 28.04353719 -22 25.875 C-24 23 -24 23 -24.5625 19.9375 C-24 17 -24 17 -22.5625 14.625 C-18.79880462 12.23826634 -15.34043107 12.66612069 -11 13 C-11.04640625 12.39671875 -11.0928125 11.7934375 -11.140625 11.171875 C-11.43248438 4.70927439 -11.43248438 4.70927439 -9.4375 1.4375 C-6.04481874 -0.56331202 -3.87285839 -0.55326548 0 0 Z " fill="#F46369" transform="translate(45,30)"/>
<path d="M0 0 C3.5578125 -0.0928125 3.5578125 -0.0928125 7.1875 -0.1875 C8.29387817 -0.22846802 8.29387817 -0.22846802 9.42260742 -0.27026367 C13.78915195 -0.32510346 16.66605826 0.10675171 20 3 C20.55859375 5.15625 20.55859375 5.15625 20.4375 7.5 C20.41558594 8.2734375 20.39367187 9.046875 20.37109375 9.84375 C20 12 20 12 18 15 C18.66 15 19.32 15 20 15 C22.35048538 18.52572807 22.66397817 19.85013645 22 24 C18.78564187 27.42965003 16.679135 29.28816155 11.9140625 29.48828125 C10.48345169 29.46013392 9.05346153 29.39579007 7.625 29.3125 C5.10875 29.209375 2.5925 29.10625 0 29 C0 19.43 0 9.86 0 0 Z " fill="#30456E" transform="translate(104,35)"/>
<path d="M0 0 C7 0 7 0 9.109375 2.01171875 C9.65078125 2.89472656 10.1921875 3.77773438 10.75 4.6875 C11.30171875 5.55761719 11.8534375 6.42773438 12.421875 7.32421875 C12.94265625 8.20722656 13.4634375 9.09023438 14 10 C14.99 11.65 15.98 13.3 17 15 C17.33 10.05 17.66 5.1 18 0 C20.31 0 22.62 0 25 0 C25 9.57 25 19.14 25 29 C18 29 18 29 16.14453125 27.2421875 C15.70496094 26.46101563 15.26539063 25.67984375 14.8125 24.875 C14.36519531 24.10929687 13.91789063 23.34359375 13.45703125 22.5546875 C12.97621094 21.71164063 12.49539062 20.86859375 12 20 C10.68 18.02 9.36 16.04 8 14 C7.67 18.95 7.34 23.9 7 29 C4.69 29 2.38 29 0 29 C0 19.43 0 9.86 0 0 Z " fill="#334871" transform="translate(240,35)"/>
<path d="M0 0 C7 0 7 0 8.71264648 1.37695312 C9.28607788 2.31958008 9.28607788 2.31958008 9.87109375 3.28125 C10.51401367 4.29638672 10.51401367 4.29638672 11.16992188 5.33203125 C11.58822266 6.04746094 12.00652344 6.76289062 12.4375 7.5 C12.88287109 8.21542969 13.32824219 8.93085937 13.78710938 9.66796875 C14.88054585 11.43157596 15.94334866 13.2141104 17 15 C17.33 10.05 17.66 5.1 18 0 C19.98 0 21.96 0 24 0 C24 9.24 24 18.48 24 28 C17 28 17 28 15.37915039 26.71484375 C15.03875732 26.12832031 14.69836426 25.54179688 14.34765625 24.9375 C13.96416016 24.30585937 13.58066406 23.67421875 13.18554688 23.0234375 C12.81494141 22.35570313 12.44433594 21.68796875 12.0625 21 C11.66482422 20.33226563 11.26714844 19.66453125 10.85742188 18.9765625 C9.88192307 17.33114283 8.93779732 15.66719524 8 14 C7.67 18.95 7.34 23.9 7 29 C4.69 29 2.38 29 0 29 C0 19.43 0 9.86 0 0 Z " fill="#2D436D" transform="translate(130,35)"/>
<path d="M0 0 C2.64 0 5.28 0 8 0 C9.50752893 4.26821354 11.00472959 8.53997809 12.5 12.8125 C12.92925781 14.02744141 13.35851562 15.24238281 13.80078125 16.49414062 C14.40986328 18.23920898 14.40986328 18.23920898 15.03125 20.01953125 C15.40830078 21.09307861 15.78535156 22.16662598 16.17382812 23.27270508 C17 26 17 26 17 29 C14.69 29 12.38 29 10 29 C9.67 27.02 9.34 25.04 9 23 C5.7 23 2.4 23 -1 23 C-1.33 24.98 -1.66 26.96 -2 29 C-4.31 29 -6.62 29 -9 29 C-7.6393319 22.24476394 -5.71290027 15.91424405 -3.375 9.4375 C-3.05015625 8.52419922 -2.7253125 7.61089844 -2.390625 6.66992188 C-1.59846371 4.44488059 -0.8015341 2.22167825 0 0 Z " fill="#324870" transform="translate(277,35)"/>
<path d="M0 0 C2.31 0 4.62 0 7 0 C7.02505615 0.59538574 7.0501123 1.19077148 7.07592773 1.80419922 C7.19177494 4.49469136 7.31455196 7.1848234 7.4375 9.875 C7.47681641 10.81214844 7.51613281 11.74929687 7.55664062 12.71484375 C7.59853516 13.61074219 7.64042969 14.50664063 7.68359375 15.4296875 C7.72025146 16.25710449 7.75690918 17.08452148 7.79467773 17.93701172 C7.88238327 20.06179429 7.88238327 20.06179429 9 22 C11.31 22 13.62 22 16 22 C17.17469444 19.65061112 17.20034889 18.04926795 17.31640625 15.4296875 C17.35830078 14.53378906 17.40019531 13.63789062 17.44335938 12.71484375 C17.48267578 11.77769531 17.52199219 10.84054688 17.5625 9.875 C17.60568359 8.93011719 17.64886719 7.98523437 17.69335938 7.01171875 C17.79959072 4.67462908 17.90163176 2.3374317 18 0 C20.31 0 22.62 0 25 0 C25.11689626 3.37470504 25.18747934 6.7488843 25.25 10.125 C25.30027344 11.55199219 25.30027344 11.55199219 25.3515625 13.0078125 C25.43254901 18.83884135 25.11764464 22.49362667 21 27 C16.82260772 29.89979947 11.88691458 29.78412406 7 29 C3.58728867 26.4404665 1.62796721 23.90102874 0 20 C-0.22705078 17.70996094 -0.22705078 17.70996094 -0.1953125 15.234375 C-0.18886719 14.34492187 -0.18242187 13.45546875 -0.17578125 12.5390625 C-0.15902344 11.61867188 -0.14226562 10.69828125 -0.125 9.75 C-0.11597656 8.81414063 -0.10695312 7.87828125 -0.09765625 6.9140625 C-0.07413636 4.60911343 -0.04126853 2.3046884 0 0 Z " fill="#334871" transform="translate(159,35)"/>
<path d="M0 0 C2.40566065 1.09391262 3.95563557 2.27842995 6 4 C5.34 5.32 4.68 6.64 4 8 C-0.43513689 8 -3.73383684 7.13764351 -8 6 C-7.29463297 9.22053583 -7.29463297 9.22053583 -4.34765625 10.53515625 C-3.26355469 11.03917969 -2.17945313 11.54320312 -1.0625 12.0625 C4.8161435 14.8161435 4.8161435 14.8161435 7 17 C7.44678306 21.02104757 7.6808704 23.13756416 5.125 26.375 C0.7161496 29.74647383 -3.59773816 29.63604612 -9 29 C-11.41534564 27.91546245 -12.9518276 26.72477676 -15 25 C-14.49396008 22.83125748 -14.00016187 21.00032373 -13 19 C-11 20 -9 21 -7 22 C-4.6670134 22.04022391 -2.33293334 22.04320247 0 22 C0 21.34 0 20.68 0 20 C-0.74765625 19.61328125 -1.4953125 19.2265625 -2.265625 18.828125 C-3.25046875 18.30734375 -4.2353125 17.7865625 -5.25 17.25 C-6.22453125 16.73953125 -7.1990625 16.2290625 -8.203125 15.703125 C-10.96293421 14.02257079 -12.96439899 12.50572791 -15 10 C-15 6.4375 -15 6.4375 -14 3 C-9.84755773 -0.98634458 -5.46176079 -0.81582905 0 0 Z " fill="#2E446E" transform="translate(217,35)"/>
<path d="M0 0 C2.31 0 4.62 0 7 0 C7 9.57 7 19.14 7 29 C4.69 29 2.38 29 0 29 C0 19.43 0 9.86 0 0 Z " fill="#3A4E76" transform="translate(228,35)"/>
<path d="M0 0 C2.5 1.625 2.5 1.625 4 4 C4.5625 6.9375 4.5625 6.9375 4 10 C1.54405875 13.32274404 0.0743356 14.77618008 -4 15.625 C-8.11289267 14.76814736 -9.59686932 13.42264067 -12 10 C-12 6.48044581 -11.63108355 4.15079941 -9.9375 1.0625 C-6.73774742 -0.69220303 -3.5005106 -0.626852 0 0 Z " fill="#F56F75" transform="translate(76,43)"/>
<path d="M0 0 C2.5 1.625 2.5 1.625 4 4 C4.5625 6.9375 4.5625 6.9375 4 10 C1.54405875 13.32274404 0.0743356 14.77618008 -4 15.625 C-8.11289267 14.76814736 -9.59686932 13.42264067 -12 10 C-12 6.48044581 -11.63108355 4.15079941 -9.9375 1.0625 C-6.73774742 -0.69220303 -3.5005106 -0.626852 0 0 Z " fill="#F46A6F" transform="translate(15,43)"/>
<path d="M0 0 C2.375 1.5 2.375 1.5 4 4 C4.6293407 7.51440821 4.63147635 10.7370473 3 14 C-0.26556715 15.63278358 -3.48305406 15.6227188 -7 15 C-9.5 13.4375 -9.5 13.4375 -11 11 C-11.5625 7.5 -11.5625 7.5 -11 4 C-7.69532025 0.20933794 -4.96286146 -0.84474238 0 0 Z " fill="#F46E73" transform="translate(45,12)"/>
<path d="M0 0 C1.9375 1.125 1.9375 1.125 3 3 C3.3898913 6.57400356 3.37020241 9.09763163 2 12.4375 C-0.59963316 14.46846341 -2.81281951 14.56420828 -6.05859375 14.37890625 C-8 14 -8 14 -10.5 12.4375 C-12.60020266 9.02467068 -12.63210717 6.93311127 -12 3 C-8.31376997 -1.46815761 -5.41712863 -1.50475795 0 0 Z " fill="#F56D72" transform="translate(46,74)"/>
<path d="M0 0 C4.875 1.75 4.875 1.75 6 4 C6.04022391 6.3329866 6.04320247 8.66706666 6 11 C4.948125 11.37125 3.89625 11.7425 2.8125 12.125 C-1.4101052 13.92367564 -3.36359452 16.2780158 -6 20 C-6.33 20.99 -6.66 21.98 -7 23 C-13.0546875 23.1953125 -13.0546875 23.1953125 -15 23 C-15.66 22.34 -16.32 21.68 -17 21 C-16.44444444 16.44444444 -16.44444444 16.44444444 -15 15 C-13.15108054 14.76636119 -11.29511969 14.58696365 -9.4375 14.4375 C-8.42558594 14.35371094 -7.41367187 14.26992188 -6.37109375 14.18359375 C-5.58863281 14.12300781 -4.80617188 14.06242187 -4 14 C-3.96261719 13.24074219 -3.92523438 12.48148438 -3.88671875 11.69921875 C-3.82097656 10.70535156 -3.75523438 9.71148437 -3.6875 8.6875 C-3.62949219 7.70136719 -3.57148437 6.71523438 -3.51171875 5.69921875 C-2.95377187 2.75615543 -2.31459868 1.81817001 0 0 Z " fill="#FDE8E9" transform="translate(41,32)"/>
<path d="M0 0 C1.98 0 3.96 0 6 0 C6 9.57 6 19.14 6 29 C4.02 29 2.04 29 0 29 C0 19.43 0 9.86 0 0 Z " fill="#283F69" transform="translate(93,35)"/>
<path d="M0 0 C3.49644963 -0.31785906 5.397402 -0.39644605 8.375 1.5625 C10.63913895 4.95870843 10.64269755 7.00099302 10 11 C7.83868824 13.63409871 6.32118648 14.85103073 2.88671875 15.23828125 C0.92290019 15.24874565 -1.04065135 15.1328372 -3 15 C-2.96519531 15.61488281 -2.93039063 16.22976562 -2.89453125 16.86328125 C-2.86746094 17.67152344 -2.84039062 18.47976562 -2.8125 19.3125 C-2.77769531 20.11300781 -2.74289063 20.91351563 -2.70703125 21.73828125 C-3 24 -3 24 -4.34375 25.78125 C-6.60537707 27.44546615 -8.26331821 27.22189312 -11 27 C-10.51660156 26.45601562 -10.03320312 25.91203125 -9.53515625 25.3515625 C-7.69078916 22.5263488 -7.57722717 20.7194374 -7.4375 17.375 C-7.20897616 12.20897616 -7.20897616 12.20897616 -5 10 C-2.3984375 9.5859375 -2.3984375 9.5859375 0.625 9.375 C1.62789062 9.30023438 2.63078125 9.22546875 3.6640625 9.1484375 C4.82035156 9.07496094 4.82035156 9.07496094 6 9 C6 7.35 6 5.7 6 4 C4.02 3.34 2.04 2.68 0 2 C0 1.34 0 0.68 0 0 Z " fill="#F46167" transform="translate(52,43)"/>
<path d="M0 0 C1.32 0.66 2.64 1.32 4 2 C3.21625 2.598125 2.4325 3.19625 1.625 3.8125 C-1.47627401 6.39689501 -2.858528 7.95664401 -3.40625 11.99609375 C-3.90248117 18.21336033 -3.90248117 18.21336033 -1.65625 23.70703125 C0.15723796 24.91316915 0.15723796 24.91316915 3 26 C3 26.33 3 26.66 3 27 C-3.35470441 26.52039967 -3.35470441 26.52039967 -5.9375 24.4375 C-7.49883222 20.8556202 -7.19450345 17.89006898 -7 14 C-8.216875 14.103125 -9.43375 14.20625 -10.6875 14.3125 C-14.22393408 14.30621859 -14.93853572 14.04353719 -18 11.875 C-20.29742742 8.57244809 -20.45761159 6.9354597 -20 3 C-18.15236675 4.67966659 -17.09225469 5.71484913 -16.3125 8.125 C-15.18258198 10.17507464 -15.18258198 10.17507464 -13.09765625 10.4765625 C-11.07289353 10.72565458 -9.03579477 10.8686584 -7 11 C-6.95875 10.29875 -6.9175 9.5975 -6.875 8.875 C-5.61066601 4.72075973 -3.18471218 2.91367285 0 0 Z " fill="#F57177" transform="translate(41,44)"/>
<path d="M0 0 C-1.33488128 3.59391114 -2.96022723 6.75490696 -5 10 C-3.35 9.67 -1.7 9.34 0 9 C0 12.63 0 16.26 0 20 C-1.65 20.33 -3.3 20.66 -5 21 C-7.73821055 18.26178945 -7.36332385 16.57225338 -7.4375 12.75 C-7.34946046 5.52275395 -7.34946046 5.52275395 -4.625 2.1875 C-2 0 -2 0 0 0 Z " fill="#FEFAFA" transform="translate(44,47)"/>
<path d="M0 0 C1.35401611 2.70803222 0.91421523 4.56482317 0.625 7.5625 C0.53476562 8.55378906 0.44453125 9.54507813 0.3515625 10.56640625 C0 13 0 13 -1 14 C-2.76900773 14.13157909 -4.5405086 14.2303547 -6.3125 14.3125 C-10.8621228 14.6486105 -10.8621228 14.6486105 -14.6875 17.0625 C-15.120625 17.701875 -15.55375 18.34125 -16 19 C-16.36619718 13.50704225 -16.36619718 13.50704225 -14.78125 11.3125 C-12.47956546 9.61652192 -11.13893251 9.68961163 -8.3125 9.8125 C-7.10013672 9.85310547 -7.10013672 9.85310547 -5.86328125 9.89453125 C-5.24839844 9.92933594 -4.63351563 9.96414062 -4 10 C-4.0825 8.906875 -4.165 7.81375 -4.25 6.6875 C-4 3 -4 3 -2 1.0625 C-1.34 0.711875 -0.68 0.36125 0 0 Z " fill="#F24B51" transform="translate(38,33)"/>
<path d="M0 0 C0.99 0 1.98 0 3 0 C4.32421875 1.7578125 4.32421875 1.7578125 5.6875 4.125 C9.07710328 9.51098616 13.31105638 13.15552819 19 16 C19 16.99 19 17.98 19 19 C12.06699671 17.57784548 6.6247581 12.60466779 2.53515625 6.98828125 C0 2.68483096 0 2.68483096 0 0 Z " fill="#F57075" transform="translate(12,61)"/>
<path d="M0 0 C3.63 0 7.26 0 11 0 C10.34 2.31 9.68 4.62 9 7 C2.9453125 7.1953125 2.9453125 7.1953125 1 7 C0.34 6.34 -0.32 5.68 -1 5 C-0.67 3.35 -0.34 1.7 0 0 Z " fill="#FEFBFB" transform="translate(25,48)"/>
<path d="M0 0 C0 0.99 0 1.98 0 3 C-0.886875 3.4125 -1.77375 3.825 -2.6875 4.25 C-8.6124693 7.38017246 -11.63060553 10.5824558 -14.7890625 16.390625 C-15.18867188 16.92171875 -15.58828125 17.4528125 -16 18 C-16.99 18 -17.98 18 -19 18 C-16.59717201 10.31095042 -11.62510459 4.88566429 -4.83203125 0.8125 C-3 0 -3 0 0 0 Z " fill="#F57278" transform="translate(31,21)"/>
<path d="M0 0 C0.99 0 1.98 0 3 0 C2.25139643 6.64237135 -2.27313165 10.62026104 -7 15 C-9.64652716 16.71066641 -12.05862394 17.82344958 -15 19 C-14.6640625 17.109375 -14.6640625 17.109375 -14 15 C-12.60169092 14.06779395 -11.19785326 13.14233939 -9.76171875 12.26953125 C-5.51955162 9.2125372 -1.65479396 4.96438187 0 0 Z " fill="#F56F75" transform="translate(68,61)"/>
<path d="M0 0 C6.55797346 1.47554403 11.51566229 5.54413357 15.3984375 10.9453125 C18 15.35505319 18 15.35505319 18 18 C17.01 18 16.02 18 15 18 C13.7109375 16.2421875 13.7109375 16.2421875 12.375 13.875 C9.51063122 9.27465014 6.43740199 6.93001894 1.7578125 4.2890625 C1.17773438 3.86367188 0.59765625 3.43828125 0 3 C0 2.01 0 1.02 0 0 Z " fill="#F46D72" transform="translate(53,21)"/>
<path d="M0 0 C2.375 0.75 2.375 0.75 3.375 1.75 C3.625 4.1875 3.625 4.1875 3.375 6.75 C0.375 8.75 0.375 8.75 -2.3125 8.375 C-3.075625 8.16875 -3.83875 7.9625 -4.625 7.75 C-5.3125 5.4375 -5.3125 5.4375 -5.625 2.75 C-3.9659358 -0.015107 -3.22812218 -0.30744021 0 0 Z " fill="#FEF3F3" transform="translate(11.625,45.25)"/>
<path d="M0 0 C1.1446875 0.3403125 1.1446875 0.3403125 2.3125 0.6875 C3 3 3 3 3.3125 5.6875 C2.1875 7.5625 2.1875 7.5625 0.3125 8.6875 C-2.375 8.375 -2.375 8.375 -4.6875 7.6875 C-5.375 5.375 -5.375 5.375 -5.6875 2.6875 C-4.0011022 -0.12316299 -3.27764429 -0.38112143 0 0 Z " fill="#FEF5F5" transform="translate(72.6875,45.3125)"/>
<path d="M0 0 C3.625 0.375 3.625 0.375 7 1 C6.125 6.875 6.125 6.875 5 8 C2.66702567 8.04092937 0.33294775 8.04241723 -2 8 C-2.125 5.125 -2.125 5.125 -2 2 C-1.34 1.34 -0.68 0.68 0 0 Z " fill="#FEF3F4" transform="translate(39,15)"/>
<path d="M0 0 C3.625 0.375 3.625 0.375 7 1 C6.125 6.875 6.125 6.875 5 8 C2 8.125 2 8.125 -1 8 C-2 7 -2 7 -2.1875 4.5625 C-2 2 -2 2 0 0 Z " fill="#FEF4F4" transform="translate(39,76)"/>
<path d="M0 0 C0.66 0.33 1.32 0.66 2 1 C1.649375 1.515625 1.29875 2.03125 0.9375 2.5625 C-0.3615641 5.94006667 0.32782319 8.50468057 1 12 C2.98 12 4.96 12 7 12 C7 12.99 7 13.98 7 15 C3.00485594 15.46455163 1.40850377 15.28682179 -1.9375 12.9375 C-4 10 -4 10 -4 6.375 C-3.06579141 3.22204601 -2.58725064 1.91231569 0 0 Z " fill="#F57176" transform="translate(7,43)"/>
<path d="M0 0 C1.3950848 2.29778673 2.07438619 3.4792967 1.6875 6.1875 C1 8 1 8 0 9 C-7.45864662 9.36090226 -7.45864662 9.36090226 -11 7 C-11 6.01 -11 5.02 -11 4 C-8.03 4 -5.06 4 -2 4 C-1.34 2.68 -0.68 1.36 0 0 Z " fill="#F35D63" transform="translate(46,18)"/>
<path d="M0 0 C0.33 0.66 0.66 1.32 1 2 C-3.2024454 4.80163026 -6.00104935 4.14489712 -11 4 C-11 6.97 -11 9.94 -11 13 C-11.99 13.495 -11.99 13.495 -13 14 C-13.05391993 12.20866022 -13.09275571 10.41686101 -13.125 8.625 C-13.14820313 7.62726562 -13.17140625 6.62953125 -13.1953125 5.6015625 C-13 3 -13 3 -11 1 C-8.3984375 0.5859375 -8.3984375 0.5859375 -5.375 0.375 C-4.37210938 0.30023438 -3.36921875 0.22546875 -2.3359375 0.1484375 C-1.56507812 0.09945312 -0.79421875 0.05046875 0 0 Z " fill="#F13C43" transform="translate(58,52)"/>
<path d="M0 0 C2.59094622 0.35012787 4.5774211 0.73770965 6.8125 2.125 C8.63883169 5.00868162 8.18806842 7.67745793 8 11 C3.56923077 13.09230769 3.56923077 13.09230769 0.6875 12.625 C0.130625 12.41875 -0.42625 12.2125 -1 12 C-0.38125 11.79375 0.2375 11.5875 0.875 11.375 C3.84653645 9.45224112 4.13024659 7.33405473 5 4 C3.02 3.34 1.04 2.68 -1 2 C-0.67 1.34 -0.34 0.68 0 0 Z " fill="#F3565C" transform="translate(41,73)"/>
<path d="M0 0 C5.42857143 -0.36190476 5.42857143 -0.36190476 7.875 1.1875 C9.43323149 3.69798407 9.49631357 5.09302053 9 8 C7.375 10.3125 7.375 10.3125 5 12 C1.75 12.25 1.75 12.25 -1 12 C2.75 10 2.75 10 5 10 C5 8.02 5 6.04 5 4 C3.02 3.34 1.04 2.68 -1 2 C-0.67 1.34 -0.34 0.68 0 0 Z " fill="#F3565C" transform="translate(70,43)"/>
<path d="M0 0 C2.31 0 4.62 0 7 0 C7.38218767 1.65614657 7.71395102 3.32457024 8 5 C7 6 7 6 3.4375 6.0625 C2.303125 6.041875 1.16875 6.02125 0 6 C0 4.02 0 2.04 0 0 Z " fill="#DFE2E9" transform="translate(111,52)"/>
<path d="M0 0 C3.49644963 -0.31785906 5.397402 -0.39644605 8.375 1.5625 C10.54455002 4.81682503 10.29451507 7.17130414 10 11 C9.01 10.67 8.02 10.34 7 10 C6.67 8.02 6.34 6.04 6 4 C4.02 3.34 2.04 2.68 0 2 C0 1.34 0 0.68 0 0 Z " fill="#F46A70" transform="translate(52,43)"/>
<path d="M0 0 C1.98 0 3.96 0 6 0 C6.38218767 1.65614657 6.71395102 3.32457024 7 5 C6 6 6 6 2.9375 6.0625 C1.4834375 6.0315625 1.4834375 6.0315625 0 6 C0 4.02 0 2.04 0 0 Z " fill="#DEE2E8" transform="translate(111,41)"/>
<path d="M0 0 C0.99 0.33 1.98 0.66 3 1 C3.125 3.375 3.125 3.375 3 6 C2.34 6.66 1.68 7.32 1 8 C0.01 7.67 -0.98 7.34 -2 7 C-3.66362417 6.65179959 -5.32995171 6.31595508 -7 6 C-5 5 -3 4 -1 3 C-0.67 2.01 -0.34 1.02 0 0 Z " fill="#F35056" transform="translate(15,49)"/>
<path d="M0 0 C0.66 0 1.32 0 2 0 C2.33 2.31 2.66 4.62 3 7 C1.68 7 0.36 7 -1 7 C-0.67 4.69 -0.34 2.38 0 0 Z " fill="#C5CBD7" transform="translate(280,45)"/>
</svg>
