<?xml version="1.0" encoding="UTF-8"?>
<svg version="1.1" xmlns="http://www.w3.org/2000/svg" width="1414" height="2000">
<path d="M0 0 C466.62 0 933.24 0 1414 0 C1414 660 1414 1320 1414 2000 C947.38 2000 480.76 2000 0 2000 C0 1340 0 680 0 0 Z " fill="#FEFEFE" transform="translate(0,0)"/>
<path d="M0 0 C0.78947021 0.00644531 1.57894043 0.01289062 2.39233398 0.01953125 C12.87035237 0.3440008 20.89011042 4.11738099 28.41015625 11.40625 C38.23112712 22.21536783 38.80957879 34.85624419 38.70361328 48.79614258 C38.68759542 51.29759826 38.70349592 53.79742275 38.72265625 56.29882812 C38.75105859 78.48667913 32.93597371 96.79732946 17.55859375 113.34375 C10.66852921 119.95821195 -1.43961396 130.5 -11.6875 130.5 C-11.87716152 125.09464656 -11.88889119 120.5448548 -9.6875 115.5 C-7.87657993 113.72007367 -5.94088044 112.16246428 -3.97265625 110.55859375 C5.28525119 102.21856431 12.68061715 89.92456262 14.3125 77.5 C-1.86304515 84.29945482 -13.01983045 96.39270839 -19.6875 112.5 C-21.62573815 118.17120852 -22.02191201 123.2663223 -22.05859375 129.23828125 C-22.06762222 130.15908981 -22.0766507 131.07989838 -22.08595276 132.02861023 C-22.1004011 133.96915463 -22.10932845 135.90974715 -22.11303711 137.8503418 C-22.12492389 140.7936551 -22.17415453 143.73486308 -22.22460938 146.67773438 C-22.62023741 160.44714384 -22.62023741 160.44714384 -16.6875 172.5 C-10.8116291 177.89943054 -6.18193998 179.85042244 1.80859375 179.69921875 C5.43648039 179.41057254 7.43196912 178.76327426 10.3125 176.5 C13.46338356 171.15058998 15.4242427 165.5074262 15.4543457 159.28564453 C15.46138016 158.46444122 15.46841461 157.64323792 15.47566223 156.79714966 C15.48190865 155.47830276 15.48190865 155.47830276 15.48828125 154.1328125 C15.51147691 152.25910332 15.53559415 150.38540536 15.56054688 148.51171875 C15.59565783 145.56681769 15.62501216 142.62233105 15.63842773 139.67724609 C15.65393286 136.82859591 15.69415207 133.98114452 15.73828125 131.1328125 C15.73637283 130.2576297 15.73446442 129.3824469 15.73249817 128.48074341 C15.84164762 123.00367393 16.68697023 119.8580927 20.3125 115.5 C25.32205792 110.96008814 30.6553435 111.35689171 37.13671875 111.32421875 C38.90561073 111.30101043 40.67449096 111.27689269 42.44335938 111.25195312 C45.2167944 111.21695169 47.98979944 111.18754957 50.76342773 111.17407227 C53.45088242 111.15847682 56.1370971 111.11818946 58.82421875 111.07421875 C60.04814583 111.07708138 60.04814583 111.07708138 61.29679871 111.08000183 C68.6759405 110.92542504 74.65959138 108.81423944 80.25 103.9375 C83.27868795 100.35814152 84.66481949 98.48807317 84.3125 93.8125 C83.45946627 86.85621306 79.74132438 82.86654684 74.875 78.125 C68.99489225 74.39615118 62.65034005 74.13705989 55.875 73.875 C55.04806641 73.83632813 54.22113281 73.79765625 53.36914062 73.7578125 C51.35058927 73.66446908 49.33157669 73.58119039 47.3125 73.5 C47.3125 69.21 47.3125 64.92 47.3125 60.5 C62.60947483 59.88757663 74.45483884 59.50104084 86.75 69.75 C91.03136396 73.88017615 93.92984772 78.06880135 96.3125 83.5 C96.745625 84.428125 97.17875 85.35625 97.625 86.3125 C99.9049349 96.88310728 98.29352722 107.76752865 92.76953125 117.109375 C86.82554694 125.21604468 79.07931023 130.92970561 69.3125 133.5 C63.92235578 133.96367213 58.59073793 133.88154415 53.1875 133.75 C51.73960823 133.72989039 50.29168927 133.71164755 48.84375 133.6953125 C45.33275873 133.65170153 41.8228088 133.5829257 38.3125 133.5 C38.33606567 134.69375244 38.33606567 134.69375244 38.36010742 135.91162109 C38.42300425 139.56600657 38.46166375 143.22027761 38.5 146.875 C38.52513672 148.12667969 38.55027344 149.37835937 38.57617188 150.66796875 C38.67527106 163.28659852 36.12763898 173.98034244 27.4609375 183.54296875 C18.52923041 191.88753175 8.98724205 193.92115768 -2.921875 193.7109375 C-13.27805321 193.13081963 -20.27372963 188.20748306 -27.375 180.9375 C-35.41886048 171.02830764 -36.39571132 160.00830786 -36 147.6875 C-35.97483494 146.30147344 -35.95203652 144.91540182 -35.93164062 143.52929688 C-35.87337774 140.18500748 -35.79162214 136.84312171 -35.6875 133.5 C-37.03328125 133.52356567 -37.03328125 133.52356567 -38.40625 133.54760742 C-41.76845196 133.59905641 -45.1302292 133.6365042 -48.49267578 133.66479492 C-49.94163661 133.67978417 -51.39055283 133.70018271 -52.83935547 133.72631836 C-67.66410653 133.98684982 -67.66410653 133.98684982 -74.6875 130.5 C-75.574375 130.0978125 -76.46125 129.695625 -77.375 129.28125 C-85.54638042 124.75386355 -91.12338615 117.96583687 -94.6875 109.3125 C-97.18042318 100.25324976 -97.03521617 89.1621929 -92.9375 80.66796875 C-87.6615713 71.51752992 -80.46946119 64.70450602 -70.32373047 61.0690918 C-64.09236047 59.72390533 -57.53196272 60.20179219 -51.1875 60.3125 C-49.68230503 60.3275714 -48.17709549 60.34125547 -46.671875 60.35351562 C-43.01011059 60.38633313 -39.34889979 60.43798011 -35.6875 60.5 C-35.70844727 59.61328613 -35.72939453 58.72657227 -35.75097656 57.81298828 C-35.81974643 54.47677921 -35.86958383 51.14133905 -35.90722656 47.8046875 C-35.92716189 46.36934413 -35.95432074 44.93408003 -35.98925781 43.49902344 C-36.2881133 30.89435364 -34.22311967 20.30959276 -25.6875 10.5 C-17.97094974 3.93136631 -10.20594592 -0.08738903 0 0 Z " fill="#F46368" transform="translate(194.6875,912.5)"/>
<path d="M0 0 C74.83870968 0 74.83870968 0 86.72265625 11.6953125 C93.7382216 19.38313104 95.3273691 27.73520118 95.21484375 37.9375 C94.45079454 48.82867418 88.11527831 57.17563897 81 65 C81.73605469 65.49628906 82.47210937 65.99257813 83.23046875 66.50390625 C91.87896118 72.52471934 97.09158408 77.67034438 100 88 C100.3940168 90.99385982 100.43094059 93.9212093 100.375 96.9375 C100.36484863 97.72946777 100.35469727 98.52143555 100.34423828 99.33740234 C100.08912276 108.93488796 97.63891195 115.91368311 91 123 C82.10026543 131.22401398 73.16542317 134.13599521 61.07666016 134.11352539 C60.40190832 134.11364593 59.72715649 134.11376646 59.03195763 134.11389065 C56.86762464 134.11314972 54.7033799 134.10555922 52.5390625 134.09765625 C51.19490602 134.09618429 49.85074897 134.09516514 48.5065918 134.09460449 C43.5460524 134.08938109 38.58552532 134.07541982 33.625 134.0625 C22.52875 134.041875 11.4325 134.02125 0 134 C0 89.78 0 45.56 0 0 Z " fill="#263D68" transform="translate(490,938)"/>
<path d="M0 0 C10.89 0 21.78 0 33 0 C41.16834079 9.28537885 41.16834079 9.28537885 42.75 13.6015625 C44.88534479 18.91152894 47.65401201 23.43341868 50.8125 28.1875 C51.80389313 29.74589869 52.79075818 31.30718577 53.7734375 32.87109375 C54.28616211 33.68433105 54.79888672 34.49756836 55.32714844 35.33544922 C57.19710873 38.31395865 59.05643461 41.29894031 60.9140625 44.28515625 C61.58203857 45.35805908 62.25001465 46.43096191 62.93823242 47.53637695 C64.23991244 49.62869763 65.53965567 51.72222487 66.8371582 53.81713867 C70.53959842 59.77586752 70.53959842 59.77586752 74.56640625 65.515625 C77.76546536 70.0959793 80.32469361 75.09527162 83 80 C83.33 53.6 83.66 27.2 84 0 C94.23 0 104.46 0 115 0 C115 44.22 115 88.44 115 134 C104.11 134 93.22 134 82 134 C73.75435989 124.636307 73.75435989 124.636307 72.1875 120.33984375 C70.15482553 115.2315567 67.58271599 110.80657803 64.625 106.1875 C63.71603157 104.69957394 62.8098333 103.20995247 61.90625 101.71875 C58.20634652 95.67829984 54.38919419 89.71244672 50.56103516 83.75268555 C44.25331098 73.90604026 38.1584034 63.9481901 32 54 C31.67 80.4 31.34 106.8 31 134 C20.77 134 10.54 134 0 134 C0 89.78 0 45.56 0 0 Z " fill="#273E69" transform="translate(610,938)"/>
<path d="M0 0 C10.89 0 21.78 0 33 0 C39.32443106 6.81092576 39.32443106 6.81092576 40.28515625 10.29296875 C42.16505393 15.93266178 45.34934738 20.51610462 48.625 25.4375 C49.83612021 27.32420436 51.04307736 29.21358686 52.24609375 31.10546875 C52.86081543 32.06888184 53.47553711 33.03229492 54.10888672 34.02490234 C61.97728943 46.40346618 69.72029453 58.86326086 77.375 71.375 C77.83350342 72.12426758 78.29200684 72.87353516 78.7644043 73.64550781 C81.8705628 78.74112561 81.8705628 78.74112561 83 81 C83.33 54.27 83.66 27.54 84 0 C93.9 0 103.8 0 114 0 C114 44.22 114 88.44 114 134 C103.44 134 92.88 134 82 134 C74.68623633 126.19865208 74.68623633 126.19865208 73.26171875 122.28515625 C70.78436547 116.20375355 67.30935357 110.93469899 63.75 105.4375 C62.467217 103.38930404 61.18861451 101.3384843 59.9140625 99.28515625 C59.27114258 98.25277832 58.62822266 97.22040039 57.96582031 96.15673828 C57.31709961 95.11501465 56.66837891 94.07329102 56 93 C53.37663766 88.7906432 50.75139125 84.5824675 48.125 80.375 C47.50197998 79.37573486 46.87895996 78.37646973 46.23706055 77.34692383 C42.05308976 70.6479857 37.79471099 64.00414813 33.44140625 57.4140625 C32 55 32 55 32 53 C31.34 53 30.68 53 30 53 C30 79.73 30 106.46 30 134 C20.1 134 10.2 134 0 134 C0 89.78 0 45.56 0 0 Z " fill="#253C67" transform="translate(1128,938)"/>
<path d="M0 0 C10.56 0 21.12 0 32 0 C35.37072419 6.74144838 35.37072419 6.74144838 36.39453125 10.14453125 C36.62430664 10.89395996 36.85408203 11.64338867 37.09082031 12.41552734 C37.32897461 13.20652832 37.56712891 13.9975293 37.8125 14.8125 C39.68383202 20.87519836 41.61047195 26.90143169 43.75 32.875 C46.36964409 40.19530548 48.92725617 47.53610889 51.46105957 54.88653564 C52.10589946 56.75709297 52.75166608 58.62733075 53.39746094 60.49755859 C55.36210355 66.19812834 57.31487635 71.90256002 59.23828125 77.6171875 C59.55321533 78.55288574 59.86814941 79.48858398 60.19262695 80.45263672 C60.91410379 82.72898669 61.51873227 84.9885502 62.0625 87.3125 C62.83493411 90.35074081 63.79447031 92.98112734 65.08203125 95.82421875 C66.85327055 100.02243275 68.29233468 104.34921824 69.80859375 108.64453125 C70.69864849 111.15127557 71.60985849 113.64188526 72.5625 116.125 C78 130.5 78 130.5 78 134 C67.44 134 56.88 134 46 134 C42.625 125 42.625 125 41.17578125 120.84375 C40.76066284 119.65555664 40.76066284 119.65555664 40.3371582 118.44335938 C39.999021 117.47205078 39.66088379 116.50074219 39.3125 115.5 C37.6728125 110.7975 37.6728125 110.7975 36 106 C15.705 105.505 15.705 105.505 -5 105 C-6.32 110.28 -7.64 115.56 -9 121 C-10.65 125.29 -12.3 129.58 -14 134 C-24.56 134 -35.12 134 -46 134 C-43.75417252 123.89377632 -43.75417252 123.89377632 -42.3359375 120.1875 C-42.02229248 119.35162354 -41.70864746 118.51574707 -41.38549805 117.65454102 C-41.05203369 116.77854248 -40.71856934 115.90254395 -40.375 115 C-36.84928377 105.55160248 -33.69125831 96.01982723 -30.70263672 86.38867188 C-28.09275619 78.04030469 -28.09275619 78.04030469 -26.39453125 74.1796875 C-25.00439014 71.01001001 -23.97484139 67.88102256 -23 64.5625 C-21.79242406 60.46177337 -20.43776157 56.4725208 -18.91455078 52.47875977 C-17.75286288 49.33017001 -16.67183236 46.15732261 -15.58984375 42.98046875 C-15.37518463 42.35072647 -15.16052551 41.72098419 -14.93936157 41.07215881 C-14.04305148 38.44134841 -13.147792 35.81020931 -12.25854492 33.17700195 C-11.60206777 31.2351316 -10.94015119 29.295186 -10.27734375 27.35546875 C-9.88796631 26.20715576 -9.49858887 25.05884277 -9.09741211 23.87573242 C-8 21 -8 21 -6 18 C-5.18804779 15.05401632 -4.54053773 12.08848155 -3.87890625 9.10546875 C-3 6 -3 6 0 0 Z " fill="#263D68" transform="translate(1303,938)"/>
<path d="M0 0 C9.9 0 19.8 0 30 0 C30.06802871 11.37963263 30.12296135 22.75912814 30.15543652 34.13891888 C30.17103026 39.42415161 30.19215245 44.70923687 30.22631836 49.99438477 C30.25913762 55.10373681 30.27690021 60.21294784 30.28463173 65.32239723 C30.290135 67.26264475 30.30088045 69.20288536 30.31719017 71.14307213 C30.42681628 84.73620284 30.34902238 97.52828569 23.0625 109.5 C22.39347656 110.6240625 21.72445312 111.748125 21.03515625 112.90625 C12.78636963 125.44567227 1.06318906 133.22236845 -13.47119141 136.55029297 C-30.09166534 139.50597099 -46.87206143 137.28457055 -61 127.8125 C-73.44687095 118.50815588 -81.22949675 105.02340412 -83.61175537 89.71691895 C-84.42694624 81.91256534 -84.2412482 74.0722227 -84.1953125 66.234375 C-84.19157486 64.34580639 -84.18873144 62.45723581 -84.18673706 60.56866455 C-84.1791597 55.63680515 -84.15956297 50.70506658 -84.1373291 45.77325439 C-84.1167425 40.72515496 -84.10770814 35.6770357 -84.09765625 30.62890625 C-84.0763106 20.75254298 -84.04117765 10.87630052 -84 1 C-74.1 1 -64.2 1 -54 1 C-53.9906543 3.52253418 -53.98130859 6.04506836 -53.97167969 8.64404297 C-53.93781614 17.00609198 -53.88221524 25.36789665 -53.81609726 33.72974968 C-53.7766952 38.79640823 -53.74447112 43.86289487 -53.72900391 48.9296875 C-53.71378936 53.82527203 -53.679259 58.72038371 -53.63169098 63.61575699 C-53.61692653 65.47747803 -53.60896184 67.3392666 -53.60811615 69.20104599 C-53.59693843 81.47689919 -53.42579119 92.12179155 -44.57421875 101.59765625 C-38.37575694 107.11936292 -30.82073766 107.30747537 -22.93359375 107.2109375 C-15.92648805 106.70709768 -10.57149532 103.10808271 -6 98 C0.5075062 88.50170072 -0.26647546 77.89774201 -0.29296875 66.89453125 C-0.27983428 64.95967566 -0.26452472 63.02483373 -0.24714661 61.0900116 C-0.20748843 56.03153164 -0.19711857 50.97341196 -0.19311523 45.91479492 C-0.18374747 40.73931075 -0.14631129 35.56403507 -0.11132812 30.38867188 C-0.04694748 20.25907474 -0.01614586 10.12978896 0 0 Z " fill="#253C68" transform="translate(832,938)"/>
<path d="M0 0 C4.48356119 3.49077264 8.79334976 7.18161387 13 11 C13.95519531 11.85722656 14.91039062 12.71445312 15.89453125 13.59765625 C18 16 18 16 18 20 C16.6015625 21.60546875 16.6015625 21.60546875 14.625 23.1875 C10.35317113 26.69161586 6.32332798 30.39687339 2.296875 34.1796875 C-1.23410405 36.97804844 -1.23410405 36.97804844 -4 37 C-6.078125 35.5234375 -6.078125 35.5234375 -8.25 33.375 C-16.19679591 25.91101435 -23.39541442 21.72130551 -34.5625 21.6875 C-35.84253906 21.67074219 -37.12257813 21.65398438 -38.44140625 21.63671875 C-42.19394349 22.01979884 -44.07514198 22.65577242 -47 25 C-48.34250592 28.31205235 -48.34250592 28.31205235 -48 32 C-44.33390015 38.65329231 -37.70211179 40.99838576 -31 44 C-29.80375 44.53625 -28.6075 45.0725 -27.375 45.625 C-25.56324665 46.36312174 -23.74847545 47.0948526 -21.91796875 47.78515625 C-5.46220079 54.08910716 15.31703136 62.92673636 23 80 C23.52240138 82.75448003 23.83420358 85.22409424 24 88 C24.07605469 88.83789062 24.15210938 89.67578125 24.23046875 90.5390625 C24.70280791 99.39861319 22.27800781 106.56731233 17.00390625 113.69921875 C7.95863019 123.65969981 -7.42244148 131.57549042 -20.98828125 132.50390625 C-46.07841722 133.14242767 -65.48368027 124.54938467 -84 108 C-83.46184547 103.74650942 -80.84353152 100.91706647 -78.25 97.6875 C-77.34026697 96.53194136 -76.4314045 95.37569679 -75.5234375 94.21875 C-75.08741211 93.66574219 -74.65138672 93.11273437 -74.20214844 92.54296875 C-72.03624836 89.76301576 -70.01593442 86.88950601 -68 84 C-63.90665189 84.57365211 -61.48498597 86.77865826 -58.3125 89.3125 C-54.19125738 92.51784108 -50.2204909 95.17139679 -45.328125 97.05078125 C-43 98 -43 98 -41.2890625 98.97167969 C-35.95955061 101.94696994 -31.57097588 102.70685177 -25.5 102.625 C-24.246427 102.61351929 -24.246427 102.61351929 -22.9675293 102.60180664 C-17.4664678 102.40254369 -13.20545519 101.81368214 -9.140625 97.77734375 C-7.76490259 95.83175284 -7.76490259 95.83175284 -7.0625 92.5 C-8.37207457 87.61092161 -10.87654205 85.6021822 -15 83 C-21.76618327 79.17248078 -28.75376397 76.07032305 -35.9543457 73.16796875 C-53.03436206 66.24983 -71.02139577 57.0597665 -78.9921875 39.41015625 C-81.23997926 31.80425624 -81.54069346 23.57430693 -78.9921875 16.0078125 C-72.9375212 4.90182459 -62.06614507 -2.52506428 -50.30859375 -6.38671875 C-35.00267745 -10.45275743 -13.34887157 -9.45545069 0 0 Z " fill="#273E69" transform="translate(1029,943)"/>
<path d="M0 0 C7.77694852 5.79602767 12.81191742 12.96389655 15.5 22.25 C16.90400728 34.04366115 14.13841714 44.08980667 7.43359375 53.890625 C1.638016 61.1548369 -6.09911127 65.23055397 -15.1875 66.875 C-25.99956894 68.02981018 -34.82662394 66.40881592 -43.7578125 60.04296875 C-51.89018338 53.23915351 -57.41619472 44.68314525 -58.47265625 33.98828125 C-58.7928048 23.11714993 -56.13188094 14.30858227 -49.1875 5.875 C-35.90122886 -8.04395072 -16.36713674 -10.60787359 0 0 Z " fill="#F46369" transform="translate(360.1875,979.125)"/>
<path d="M0 0 C0.78947021 0.00644531 1.57894043 0.01289062 2.39233398 0.01953125 C12.77254033 0.34097189 20.83978186 4.06341371 28.3359375 11.24609375 C36.85428843 20.95970736 38.02929075 29.95090834 37.47851562 42.41894531 C36.69622312 52.22521201 31.38051249 59.03948611 24.3125 65.5 C21.76429272 67.49362558 19.21019765 69.06860719 16.3125 70.5 C15.71179688 70.81710937 15.11109375 71.13421875 14.4921875 71.4609375 C6.47894542 75.11551234 -2.67528458 74.3824413 -10.9375 71.9375 C-20.88918492 68.1957715 -28.13739326 61.46749921 -32.94140625 52.0390625 C-36.79387041 42.88442641 -37.18334874 33.15381753 -34.125 23.6875 C-29.49311921 12.67463658 -21.57730274 5.65892848 -10.62841797 1.11083984 C-7.11685564 0.00569155 -3.65726319 -0.03131554 0 0 Z " fill="#F46368" transform="translate(194.6875,1115.5)"/>
<path d="M0 0 C6.07815425 4.48150478 9.96989905 9.52795499 13.2421875 16.3046875 C13.61601563 17.06136719 13.98984375 17.81804688 14.375 18.59765625 C17.1442752 27.24228558 16.12737011 38.63364822 12.5703125 46.875 C7.14091828 56.80759766 0.1083555 62.96627806 -10.59765625 66.57421875 C-21.51482297 69.09771711 -31.48062228 67.8382333 -40.93359375 61.94921875 C-49.21582647 56.13137919 -54.93798606 48.82663677 -57.34375 38.8828125 C-59.1044297 27.92008983 -57.4073449 18.12219038 -50.9453125 8.9921875 C-38.07791359 -6.77763221 -17.83370945 -10.96293187 0 0 Z " fill="#F46268" transform="translate(73.7578125,978.6953125)"/>
<path d="M0 0 C7.77430887 4.49951438 14.64624335 11.61560837 18 20 C20.68450127 30.73800508 20.33614198 41.88184668 14.6953125 51.484375 C14.13585937 52.31453125 13.57640625 53.1446875 13 54 C12.54367188 54.68578125 12.08734375 55.3715625 11.6171875 56.078125 C6.62153059 62.64384551 -1.1213144 66.89837741 -9 69 C-11.77646697 69.31597195 -14.51957084 69.38120858 -17.3125 69.375 C-18.0650708 69.37338867 -18.8176416 69.37177734 -19.59301758 69.37011719 C-25.48427748 69.24020507 -29.96993235 68.17980048 -35 65 C-36.010625 64.443125 -37.02125 63.88625 -38.0625 63.3125 C-47.01991137 56.26092084 -52.98997523 47.79871584 -54.4765625 36.3203125 C-54.90319413 25.34016163 -52.30979074 16.6409725 -45.3125 8.125 C-32.83387985 -4.87257978 -16.25678844 -7.5211004 0 0 Z " fill="#F46369" transform="translate(213,834)"/>
<path d="M0 0 C10.23 0 20.46 0 31 0 C31 44.22 31 88.44 31 134 C20.77 134 10.54 134 0 134 C0 89.78 0 45.56 0 0 Z " fill="#293F6A" transform="translate(1072,938)"/>
<path d="M0 0 C10.23 0 20.46 0 31 0 C31 44.22 31 88.44 31 134 C20.77 134 10.54 134 0 134 C0 89.78 0 45.56 0 0 Z " fill="#2A406A" transform="translate(434,938)"/>
<path d="M0 0 C6.53142097 2.8519265 12.12249382 8.74350617 14.75390625 15.375 C14.98095703 18.67480469 14.98095703 18.67480469 14.94921875 22.546875 C14.94638885 23.2292926 14.94355896 23.91171021 14.94064331 24.61480713 C14.92948723 26.78505307 14.90439182 28.95487971 14.87890625 31.125 C14.86887051 32.60025444 14.85974569 34.07551537 14.8515625 35.55078125 C14.82956312 39.15898942 14.79506508 42.76695375 14.75390625 46.375 C13.5215625 46.7153125 12.28921875 47.055625 11.01953125 47.40625 C-9.02228565 53.17681665 -25.36471291 64.35868943 -36.19140625 82.6640625 C-40.33129646 90.47615658 -42.42720015 97.71465106 -44.24609375 106.375 C-48.33520746 106.50001994 -52.4235584 106.58999365 -56.51416016 106.6496582 C-57.90107639 106.67456805 -59.28786462 106.70851002 -60.67431641 106.75219727 C-70.21619327 107.04499854 -78.37297951 106.53600473 -85.84887695 99.96655273 C-90.23251819 95.14991968 -93.04918518 89.01444968 -92.79296875 82.4296875 C-91.33945345 76.96862289 -86.69862294 73.2579099 -82.05859375 70.4375 C-78.32849614 69.02835202 -75.12863345 68.25302983 -71.1394043 68.2331543 C-69.942472 68.22260262 -69.942472 68.22260262 -68.72135925 68.21183777 C-67.86713882 68.20767349 -67.0129184 68.20350922 -66.1328125 68.19921875 C-64.30923327 68.17601894 -62.48566552 68.15190154 -60.66210938 68.12695312 C-57.79850582 68.09187858 -54.93532523 68.06250812 -52.0715332 68.04907227 C-49.29977711 68.03353686 -46.52924298 67.99329477 -43.7578125 67.94921875 C-42.4855909 67.95208138 -42.4855909 67.95208138 -41.18766785 67.95500183 C-35.4138681 67.83707512 -31.89667211 66.89202512 -27.24609375 63.375 C-23.61063397 58.37890572 -23.8488856 53.44872122 -23.91015625 47.515625 C-23.89763983 45.57551751 -23.88460253 43.63541333 -23.87109375 41.6953125 C-23.86717472 38.66296523 -23.87106496 35.63094832 -23.88574219 32.59863281 C-23.95077642 10.42196094 -23.95077642 10.42196094 -16.12109375 0.75 C-10.96211968 -1.71733543 -5.46752295 -1.52139769 0 0 Z " fill="#FEFDFD" transform="translate(204.24609375,926.625)"/>
<path d="M0 0 C19.04283792 5.44081083 35.47623453 16.83379717 50 30 C50.54301758 30.49097168 51.08603516 30.98194336 51.64550781 31.48779297 C67.39722466 45.94324553 80.30311323 65.0176978 88 85 C88 85.66 88 86.32 88 87 C81.07 87.99 81.07 87.99 74 89 C73.154375 87.1025 72.30875 85.205 71.4375 83.25 C63.22943956 65.54897247 52.09314632 49.48614832 37 37 C36.24976563 36.36191406 35.49953125 35.72382812 34.7265625 35.06640625 C25.33973266 27.27442614 14.99308068 21.22914108 4 16 C2.79021552 15.39874439 1.58164101 14.79503953 0.375 14.1875 C-0.40875 13.795625 -1.1925 13.40375 -2 13 C-1.34 8.71 -0.68 4.42 0 0 Z " fill="#F4646A" transform="translate(248,870)"/>
<path d="M0 0 C1.49632758 2.41784639 2.62459737 4.60492522 3.75 7.1875 C4.44323867 8.66168116 5.14259717 10.13299802 5.84765625 11.6015625 C6.20359863 12.3430957 6.55954102 13.08462891 6.92626953 13.84863281 C19.41671484 38.87496389 41.47720992 58.48212823 66.50390625 70.30859375 C69.45542785 71.7365366 72.22584629 73.25883251 75 75 C74.48041715 79.37934119 73.94324258 83.68803391 73 88 C37.86904652 77.21979856 10.14510939 49.48930477 -7.015625 17.79296875 C-14 4.60580357 -14 4.60580357 -14 1 C-12.60750796 0.63291604 -11.21076667 0.28193437 -9.8125 -0.0625 C-8.64654297 -0.35833984 -8.64654297 -0.35833984 -7.45703125 -0.66015625 C-4.46713588 -1.07370299 -2.8150954 -1.16580195 0 0 Z " fill="#F4646A" transform="translate(70,1061)"/>
<path d="M0 0 C4.62 0.66 9.24 1.32 14 2 C1.27381284 40.17856148 -28.81448917 67.86453529 -63.81640625 85.72265625 C-67.23742774 87.09526242 -70.34388024 87.62655019 -74 88 C-74.66 84.04 -75.32 80.08 -76 76 C-75.00742188 75.52691406 -74.01484375 75.05382813 -72.9921875 74.56640625 C-59.31751296 67.95104945 -44.95038621 60.39684253 -34.35546875 49.2734375 C-33 48 -33 48 -31 48 C-31 47.34 -31 46.68 -31 46 C-29.90387808 44.8685193 -28.79998516 43.74412177 -27.671875 42.64453125 C-15.13853553 30.31617631 -6.94644928 16.00903542 0 0 Z " fill="#F4646A" transform="translate(322,1060)"/>
<path d="M0 0 C0.33872513 1.41538717 0.67074624 2.83237963 1 4.25 C1.185625 5.03890625 1.37125 5.8278125 1.5625 6.640625 C2 9 2 9 2 13 C1.01902344 13.46148438 0.03804688 13.92296875 -0.97265625 14.3984375 C-35.25717934 30.8426754 -57.56619589 55.10527903 -74 89 C-78.29 88.34 -82.58 87.68 -87 87 C-83.0536889 73.53611508 -76.21922387 62.21628892 -68 51 C-67.47535156 50.26136719 -66.95070313 49.52273438 -66.41015625 48.76171875 C-60.25298359 40.25083466 -53.13379313 32.63510428 -45 26 C-43.48986328 24.73349609 -43.48986328 24.73349609 -41.94921875 23.44140625 C-32.11777196 15.34006645 -13.26080409 0 0 0 Z " fill="#F4646A" transform="translate(143,870)"/>
<path d="M0 0 C2.86489757 1.80182237 5.5209951 3.56886266 6.63671875 6.90234375 C8.11718556 15.45084565 6.58778758 22.89130247 1.5625 30.046875 C-3.73745226 36.00932129 -11.26676657 39.01664816 -19.1875 39.5 C-23.77127443 38.89884926 -27.23229902 37.68872887 -31 35 C-32.875 32.5 -32.875 32.5 -34 30 C-34.34546875 29.39671875 -34.6909375 28.7934375 -35.046875 28.171875 C-37.12219053 23.44287731 -36.76778689 17.64817514 -35.34765625 12.75 C-32.41760345 6.31142904 -27.71458174 1.558371 -21.625 -1.9375 C-14.03276589 -4.16281 -7.14989622 -3.38043874 0 0 Z " fill="#FEFBFB" transform="translate(208,846)"/>
<path d="M0 0 C2.30126918 1.84101535 3.59924756 3.06491098 4.75 5.75 C5.74889894 14.74009046 4.63511241 22.10901836 -1.125 29.3125 C-7.04082528 35.47430554 -12.72053134 37.21479685 -21.1875 37.5 C-26.57597521 37.31439052 -30.13547905 37.06791679 -34 33 C-37.72875953 27.98505443 -38.70747449 22.99682613 -38.44140625 16.80859375 C-37.3772797 10.03773545 -34.43487177 4.75871313 -29.0625 0.5 C-19.63233353 -5.71653432 -9.66426951 -5.75911571 0 0 Z " fill="#FEFCFC" transform="translate(67,990)"/>
<path d="M0 0 C3.39226653 2.39502191 5.30039718 4.18244154 6.62109375 8.14453125 C7.64593353 16.36005015 5.15953062 23.11804518 0.80859375 30.01953125 C-4.66994447 35.34153981 -11.62874053 38.42050312 -19.25390625 38.51953125 C-24.96329507 38.37925143 -28.04218209 37.93916489 -32.37890625 34.14453125 C-35.87160942 28.33726061 -37.68443541 21.86686122 -36.37890625 15.14453125 C-33.62150309 7.10413886 -29.2498569 1.63664553 -21.69140625 -2.23046875 C-14.09144927 -3.6644229 -6.82310735 -4.01442699 0 0 Z " fill="#FEFCFC" transform="translate(208.37890625,1131.85546875)"/>
<path d="M0 0 C5.58626121 3.79158001 5.58626121 3.79158001 6.640625 6.87109375 C8.07032857 15.3405334 6.95212987 21.8760927 2 29 C-3.05258003 34.61282504 -7.79351796 37.58891198 -15.4375 38.3359375 C-26.24770922 38.4544705 -26.24770922 38.4544705 -29.6875 36.375 C-34.25703327 31.68196583 -35.61315961 26.98418565 -36.0546875 20.58203125 C-35.8969882 13.13637142 -32.79193815 7.97862082 -27.76953125 2.66015625 C-20.0685536 -4.56482278 -9.06358441 -5.05469131 0 0 Z " fill="#FEFCFC" transform="translate(351,989)"/>
<path d="M0 0 C-1.86879126 5.73985887 -1.86879126 5.73985887 -3.05541992 8.0925293 C-4.43421185 12.33652853 -4.25839126 16.39786062 -4.23828125 20.83203125 C-4.25370219 22.78451215 -4.27000591 24.73698624 -4.28710938 26.68945312 C-4.30354189 29.75056038 -4.31250308 32.81116682 -4.30541992 35.87231445 C-4.30278916 38.83862183 -4.33099619 41.8034255 -4.36328125 44.76953125 C-4.35307449 45.67500198 -4.34286774 46.58047272 -4.33235168 47.51338196 C-4.42840877 53.80785327 -5.73890599 58.25181387 -10 63 C-14.85169506 66.50549488 -19.50990793 66.42696101 -25.2734375 66.40625 C-26.15601227 66.41708618 -27.03858704 66.42792236 -27.94790649 66.43908691 C-30.7570126 66.47321604 -33.56571429 66.48890945 -36.375 66.5 C-40.07069682 66.51464525 -43.76550269 66.54847591 -47.4609375 66.59375 C-48.29764984 66.59072876 -49.13436218 66.58770752 -49.99642944 66.58459473 C-59.75533953 66.70780058 -65.94136491 70.10998608 -72.875 76.8125 C-73.431875 77.4003125 -73.431875 77.4003125 -74 78 C-73.72690016 71.44560388 -71.48510257 67.71389408 -67 63 C-58.35147751 55.11343145 -48.01801804 56.19994672 -37.0625 56.3125 C-34.37846496 56.32381083 -31.69511645 56.32647507 -29.01109314 56.3120575 C-27.35057392 56.30468114 -25.68989448 56.31285187 -24.02955627 56.3384552 C-21.10237434 56.33678094 -18.64275359 56.3209471 -15.99145508 54.99707031 C-14.36320564 51.71731646 -14.62164327 48.32546295 -14.6640625 44.74609375 C-14.65153718 43.06965768 -14.6384995 41.39322538 -14.625 39.71679688 C-14.62109137 37.08604254 -14.62489813 34.45566836 -14.63964844 31.82495117 C-14.70962799 11.24513062 -14.70962799 11.24513062 -7.45117188 3.3059082 C-4.88347064 0.9748523 -3.52417703 0 0 0 Z " fill="#F12931" transform="translate(186,929)"/>
<path d="M0 0 C-0.53715402 3.86079451 -1.46159979 6.10690902 -4 9.0625 C-4.53625 9.71347656 -5.0725 10.36445312 -5.625 11.03515625 C-14.74595218 18.58094399 -25.13852765 17.53970485 -36.375 17.5 C-39.82086653 17.48797144 -43.26520608 17.50154944 -46.7109375 17.53125 C-47.8921669 17.51427063 -47.8921669 17.51427063 -49.09725952 17.49694824 C-52.24347227 17.52622863 -54.42859415 17.57389051 -56.99707031 19.48925781 C-58.46902577 23.17416286 -58.38089103 26.73624314 -58.3359375 30.640625 C-58.34845529 32.3684933 -58.36149265 34.0963579 -58.375 35.82421875 C-58.37891963 38.53415189 -58.37503405 41.24371572 -58.36035156 43.95361328 C-58.35172646 46.5789999 -58.37355877 49.20287149 -58.3984375 51.828125 C-58.38509369 52.62736389 -58.37174988 53.42660278 -58.35800171 54.25006104 C-58.44932548 61.28540829 -61.19545059 65.92724004 -65.87890625 71.05859375 C-66.43449219 71.51363281 -66.99007812 71.96867187 -67.5625 72.4375 C-68.12066406 72.91058594 -68.67882812 73.38367187 -69.25390625 73.87109375 C-71.15790222 75.10208891 -72.78472136 75.57827299 -75 76 C-74.57847656 75.18015625 -74.15695313 74.3603125 -73.72265625 73.515625 C-73.17480469 72.43796875 -72.62695312 71.3603125 -72.0625 70.25 C-71.51722656 69.18265625 -70.97195312 68.1153125 -70.41015625 67.015625 C-68.60669695 63.1589198 -67.87867383 60.02668491 -67.8581543 55.78564453 C-67.85111984 54.96444122 -67.84408539 54.14323792 -67.83683777 53.29714966 C-67.83267349 52.4179184 -67.82850922 51.53868713 -67.82421875 50.6328125 C-67.80102309 48.75910332 -67.77690585 46.88540536 -67.75195312 45.01171875 C-67.71684217 42.06681769 -67.68748784 39.12233105 -67.67407227 36.17724609 C-67.65856714 33.32859591 -67.61834793 30.48114452 -67.57421875 27.6328125 C-67.57612717 26.7576297 -67.57803558 25.8824469 -67.58000183 24.98074341 C-67.47085238 19.50367393 -66.62552977 16.3580927 -63 12 C-57.99044208 7.46008814 -52.6571565 7.85689171 -46.17578125 7.82421875 C-44.40688927 7.80101043 -42.63800904 7.77689269 -40.86914062 7.75195312 C-38.0957056 7.71695169 -35.32270056 7.68754957 -32.54907227 7.67407227 C-29.86161758 7.65847682 -27.1754029 7.61818946 -24.48828125 7.57421875 C-23.26435417 7.57708138 -23.26435417 7.57708138 -22.01570129 7.58000183 C-13.76400579 7.40714696 -6.84398745 0 0 0 Z " fill="#F1262E" transform="translate(278,1016)"/>
<path d="M0 0 C1.25159912 0.00523682 2.50319824 0.01047363 3.79272461 0.01586914 C4.78942421 0.01799156 4.78942421 0.01799156 5.80625916 0.02015686 C7.93590735 0.02577021 10.06545175 0.03832485 12.19506836 0.05102539 C13.63582205 0.05603868 15.07657739 0.06060188 16.51733398 0.06469727 C20.05577938 0.07574394 23.59416375 0.09301747 27.13256836 0.11352539 C27.13256836 0.77352539 27.13256836 1.43352539 27.13256836 2.11352539 C27.71006836 2.19602539 28.28756836 2.27852539 28.88256836 2.36352539 C32.00618864 3.40473215 33.18604047 4.42865934 35.13256836 7.11352539 C36.53981001 11.74756317 36.72605181 15.73968606 34.50756836 20.11352539 C32.13256836 23.11352539 32.13256836 23.11352539 29.38256836 24.05102539 C28.64006836 24.07165039 27.89756836 24.09227539 27.13256836 24.11352539 C27.13256836 24.77352539 27.13256836 25.43352539 27.13256836 26.11352539 C22.87842213 26.13818161 18.62431338 26.15636438 14.37011719 26.16845703 C12.92186763 26.1734964 11.47362319 26.18032792 10.02539062 26.18896484 C7.94782248 26.20104786 5.87032139 26.2067575 3.79272461 26.21118164 C2.54112549 26.21641846 1.28952637 26.22165527 0 26.22705078 C-2.86743164 26.11352539 -2.86743164 26.11352539 -3.86743164 25.11352539 C-3.96689617 23.34493346 -3.99823381 21.57241088 -4.00024414 19.80102539 C-4.0015332 18.72594727 -4.00282227 17.65086914 -4.00415039 16.54321289 C-3.99834961 14.84551758 -3.99834961 14.84551758 -3.99243164 13.11352539 C-3.99629883 11.98172852 -4.00016602 10.84993164 -4.00415039 9.68383789 C-4.00286133 8.60875977 -4.00157227 7.53368164 -4.00024414 6.42602539 C-3.99911621 5.4321582 -3.99798828 4.43829102 -3.99682617 3.41430664 C-3.80369115 -0.01985266 -3.48888005 0.13812935 0 0 Z " fill="#F1F3F5" transform="translate(523.867431640625,1017.886474609375)"/>
<path d="M0 0 C4.00125 -0.0825 8.0025 -0.165 12.125 -0.25 C13.37555176 -0.28641602 14.62610352 -0.32283203 15.91455078 -0.36035156 C22.23200939 -0.4234549 26.28877859 -0.40983014 31 4 C33.83272271 8.24908406 33.76806539 12.01145405 33 17 C31.01279262 20.887326 28.04544212 23.41207791 24 25 C21.34277344 25.22705078 21.34277344 25.22705078 18.359375 25.1953125 C17.39483398 25.19031738 16.43029297 25.18532227 15.43652344 25.18017578 C14.2199707 25.16196777 13.00341797 25.14375977 11.75 25.125 C7.8725 25.08375 3.995 25.0425 0 25 C0 16.75 0 8.5 0 0 Z " fill="#F9FAFB" transform="translate(521,967)"/>
<path d="M0 0 C0.66 0 1.32 0 2 0 C3.32190013 4.01780383 4.63082308 8.039722 5.9375 12.0625 C6.31068359 13.19623047 6.68386719 14.32996094 7.06835938 15.49804688 C7.42607422 16.60341797 7.78378906 17.70878906 8.15234375 18.84765625 C8.48226318 19.85836182 8.81218262 20.86906738 9.15209961 21.91040039 C10 25 10 25 11 32 C4.4 32 -2.2 32 -9 32 C-7.87491172 24.12438206 -7.87491172 24.12438206 -6.66015625 20.37109375 C-6.40169922 19.56349609 -6.14324219 18.75589844 -5.87695312 17.92382812 C-5.60818359 17.10333984 -5.33941406 16.28285156 -5.0625 15.4375 C-4.66514648 14.2009668 -4.66514648 14.2009668 -4.25976562 12.93945312 C-2.86735768 8.6171148 -1.4443905 4.30526056 0 0 Z " fill="#F1F3F5" transform="translate(1318,983)"/>
<path d="M0 0 C3.85510206 5.03803748 5.54536498 9.14256343 5.375 15.53125 C4.29954512 22.61132793 0.4614215 28.53136955 -5.1953125 32.81640625 C-11.5908788 37.01090103 -17.49860824 37.98872212 -25 37 C-29.54687707 35.49908912 -32.32243672 34.01634492 -35 30 C-33.94941406 30.04640625 -32.89882813 30.0928125 -31.81640625 30.140625 C-19.08321544 30.54456282 -19.08321544 30.54456282 -8.234375 24.421875 C-1.52970206 17.19645076 -0.45415315 9.53721617 0 0 Z " fill="#F12B32" transform="translate(358,996)"/>
<path d="M0 0 C4.73497042 6.17604838 4.74883178 11.27658385 4 19 C1.82697362 26.46343174 -2.30429277 31.19289808 -9 35 C-14.64683722 37.70066128 -21.38454457 38.2191652 -27.3515625 36.20703125 C-30.99896894 34.47617111 -32.70644944 33.44032584 -35 30 C-34.02160156 30.04640625 -33.04320312 30.0928125 -32.03515625 30.140625 C-24.20335333 30.35624986 -17.81961709 30.27897543 -11 26 C-9.6078125 25.13375 -9.6078125 25.13375 -8.1875 24.25 C-1.57279175 17.44630009 -0.97400782 9.12491535 0 0 Z " fill="#F12A32" transform="translate(215,1139)"/>
<path d="M0 0 C2.98232335 2.72299089 3.87740927 4.73556415 4.2734375 8.8203125 C4.53666799 17.38542772 3.4383979 23.14702647 -2.421875 29.5546875 C-8.2413684 34.84229172 -14.45275061 36.62098961 -22.13671875 36.4296875 C-26.9151026 35.71260398 -31.01942453 33.70285989 -35 31 C-35.33 30.34 -35.66 29.68 -36 29 C-34.88882813 29.05800781 -33.77765625 29.11601563 -32.6328125 29.17578125 C-23.86496743 29.49923791 -16.19689092 29.76308093 -9 24 C-2.14882219 17.13445913 -0.80523008 9.34490703 0 0 Z " fill="#F12A32" transform="translate(72,997)"/>
<path d="M0 0 C3.07763036 2.81001033 3.89856245 4.85955212 4.2734375 9.07421875 C4.49040991 16.79342933 4.38608898 22.21350633 -1 28 C-7.00647115 34.08972917 -10.65973469 36.11911725 -19.25 36.3125 C-25.33864542 36.27140678 -28.93260088 35.34639565 -34 32 C-34.66 31.01 -35.32 30.02 -36 29 C-35.175 29.165 -34.35 29.33 -33.5 29.5 C-25.13535362 30.69494948 -18.55808261 30.00995143 -11 26 C-3.97162411 20.23443575 -1.24428615 13.32090892 -0.3125 4.5 C-0.19735084 3.00080309 -0.08919667 1.50096457 0 0 Z " fill="#F02A31" transform="translate(215,854)"/>
<path d="M0 0 C-1.5137092 14.56483604 -10.57206789 25.95022031 -21.484375 35.078125 C-23.29037346 36.44863447 -25.10257479 37.76042136 -27 39 C-27.66 38.67 -28.32 38.34 -29 38 C-28.43152344 37.41734375 -27.86304688 36.8346875 -27.27734375 36.234375 C-18.40761826 26.81676998 -12.96449288 17.11211109 -9.23828125 4.8359375 C-8 2 -8 2 -6.10546875 0.6015625 C-4 0 -4 0 0 0 Z " fill="#F12B33" transform="translate(218,987)"/>
<path d="M0 0 C0.33 0 0.66 0 1 0 C1 4.29 1 8.58 1 13 C0.34 12.34 -0.32 11.68 -1 11 C-2.485 13.475 -2.485 13.475 -4 16 C-5 14 -5 14 -4.00390625 10.7421875 C-3.53110016 9.4502948 -3.05028031 8.16131362 -2.5625 6.875 C-2.31951172 6.21628906 -2.07652344 5.55757812 -1.82617188 4.87890625 C-1.22421679 3.25008662 -0.61297588 1.62470425 0 0 Z " fill="#CACFD7" transform="translate(1294,1055)"/>
<path d="M0 0 C0.66 0.33 1.32 0.66 2 1 C0.21427748 2.83947337 -1.57802449 4.67157741 -3.375 6.5 C-3.88289062 7.02464844 -4.39078125 7.54929687 -4.9140625 8.08984375 C-6.23832604 9.43153181 -7.61605865 10.71995815 -9 12 C-9.66 12 -10.32 12 -11 12 C-9.49650623 8.33213607 -7.36271208 6.31089607 -4.375 3.75 C-3.14910156 2.69039062 -3.14910156 2.69039062 -1.8984375 1.609375 C-1.27195312 1.07828125 -0.64546875 0.5471875 0 0 Z " fill="#4E6184" transform="translate(965,943)"/>
<path d="M0 0 C0.66 0.33 1.32 0.66 2 1 C-1.63 4.63 -5.26 8.26 -9 12 C-9 8.00102358 -7.64683965 6.93298448 -5 4 C-3.36643049 2.62631655 -1.7074998 1.28062485 0 0 Z " fill="#F47B80" transform="translate(175,1121)"/>
</svg>
